<?xml version="1.0" encoding="utf-8"?>
<!-- Generator: Adobe Illustrator 15.0.0, SVG Export Plug-In . SVG Version: 6.00 Build 0)  -->
<!DOCTYPE svg PUBLIC "-//W3C//DTD SVG 1.1//EN" "http://www.w3.org/Graphics/SVG/1.1/DTD/svg11.dtd">
<svg version="1.1" id="Layer_1" xmlns="http://www.w3.org/2000/svg" xmlns:xlink="http://www.w3.org/1999/xlink" x="0px" y="0px"
	 width="1024px" height="768px" viewBox="0 0 1024 768" enable-background="new 0 0 1024 768" xml:space="preserve">
<rect x="42.755" y="27.193" fill="none" width="266.667" height="87.887"/>
<text transform="matrix(1 0 0 1 51.5215 46.9473)"><tspan x="0" y="0" font-family="'Garamond'" font-size="30">Katherine Wyndowt</tspan><tspan x="236.514" y="0" font-family="'Garamond'" font-size="12">(2)</tspan><tspan x="3.756" y="16.8" font-family="'Garamond'" font-size="14">Daughter of Thomas Norland and widow of </tspan><tspan x="74.114" y="33.6" font-family="'Garamond'" font-size="14">Thomas Wyndowt</tspan><tspan x="18.48" y="50.4" font-family="'Garamond'" font-size="14">[Will at P.C.C., made November, 1524]</tspan></text>
<rect x="389.372" y="27.193" fill="none" width="266.667" height="84.887"/>
<text transform="matrix(1 0 0 1 425.8428 46.9473)"><tspan x="0" y="0" font-family="'Garamond'" font-size="30">Richard Haddon</tspan><tspan x="10.979" y="16.8" font-family="'Garamond'" font-size="14">(Knight.) Died October 1, 1516</tspan><tspan x="2.366" y="50.4" font-family="'Garamond'" font-size="14">[Will at P.C.C., made August 1516]</tspan></text>
<rect x="735.988" y="27.193" fill="none" width="266.666" height="75.887"/>
<text transform="matrix(1 0 0 1 785.7207 46.9473)"><tspan x="0" y="0" font-family="'Garamond'" font-size="14">(1)</tspan><tspan x="14.725" y="0" font-family="'Garamond'" font-size="30">Anna Byfield</tspan><tspan x="-26.783" y="16.8" font-family="'Garamond'" font-size="14">Daugher of Robert Byfield, Alderman of </tspan><tspan x="61.805" y="33.6" font-family="'Garamond'" font-size="14">London</tspan></text>
<g>
	<line stroke="#000000" stroke-width="2" stroke-miterlimit="10" x1="323.566" y1="42.136" x2="398.279" y2="42.136"/>
	<line stroke="#000000" stroke-width="2" stroke-miterlimit="10" x1="323.566" y1="46.803" x2="398.279" y2="46.803"/>
</g>
<g>
	<line stroke="#000000" stroke-width="2" stroke-miterlimit="10" x1="640.564" y1="42.136" x2="715.277" y2="42.136"/>
	<line stroke="#000000" stroke-width="2" stroke-miterlimit="10" x1="640.564" y1="46.803" x2="715.277" y2="46.803"/>
</g>
<g>
	<rect x="29.115" y="139.602" fill="none" width="112.495" height="85.496"/>
	<text transform="matrix(1 0 0 1 53.1797 159.3564)"><tspan x="0" y="0" font-family="'Garamond'" font-size="30">Brigit </tspan><tspan x="-15.623" y="36" font-family="'Garamond'" font-size="30">Haddon</tspan></text>
</g>
<g>
	<rect x="303.601" y="139.602" fill="none" width="112.495" height="85.496"/>
	<text transform="matrix(1 0 0 1 327.666 159.3564)"><tspan x="0" y="0" font-family="'Garamond'" font-size="30">Brigit </tspan><tspan x="-15.623" y="36" font-family="'Garamond'" font-size="30">Haddon</tspan></text>
</g>
<g>
	<rect x="173.108" y="139.602" fill="none" width="112.495" height="85.496"/>
	<text transform="matrix(1 0 0 1 197.6416 159.3564)"><tspan x="0" y="0" font-family="'Garamond'" font-size="30">Anne </tspan><tspan x="-16.092" y="36" font-family="'Garamond'" font-size="30">Haddon</tspan></text>
</g>
<line fill="none" stroke="#000000" stroke-width="2" stroke-miterlimit="10" x1="360.598" y1="48.107" x2="360.598" y2="130.681"/>
<polyline fill="none" stroke="#000000" stroke-width="2" stroke-miterlimit="10" points="360.598,114.104 83.112,114.104 
	83.112,130.681 "/>
<line fill="none" stroke="#000000" stroke-width="2" stroke-miterlimit="10" x1="227.667" y1="130.681" x2="227.667" y2="114.17"/>
</svg>
